<svg 
 xmlns="http://www.w3.org/2000/svg"
 xmlns:xlink="http://www.w3.org/1999/xlink"
 width="17px" height="15px">
<path fill-rule="evenodd"  fill="red"
 d="M15.626,1.392 C14.736,0.498 13.558,0.010 12.300,0.010 C11.042,0.010 9.860,0.502 8.970,1.395 L8.505,1.862 L8.033,1.388 C7.143,0.495 5.957,-0.001 4.699,-0.001 C3.445,-0.001 2.263,0.491 1.377,1.381 C0.487,2.274 -0.004,3.461 0.000,4.723 C0.000,5.985 0.494,7.168 1.384,8.061 L8.152,14.855 C8.246,14.948 8.372,14.999 8.494,14.999 C8.617,14.999 8.743,14.952 8.837,14.858 L15.619,8.076 C16.509,7.182 16.999,5.996 16.999,4.734 C17.003,3.472 16.517,2.285 15.626,1.392 ZM14.934,7.385 L8.494,13.824 L2.069,7.374 C1.362,6.665 0.973,5.725 0.973,4.723 C0.973,3.721 1.359,2.781 2.065,2.075 C2.768,1.370 3.705,0.980 4.699,0.980 C5.698,0.980 6.638,1.370 7.345,2.079 L8.159,2.896 C8.350,3.088 8.657,3.088 8.848,2.896 L9.655,2.086 C10.361,1.377 11.302,0.986 12.297,0.986 C13.291,0.986 14.228,1.377 14.934,2.083 C15.641,2.792 16.026,3.732 16.026,4.734 C16.030,5.735 15.641,6.676 14.934,7.385 Z"/>
</svg>